<?xml version="1.0" standalone="no"?>
<!DOCTYPE svg PUBLIC "-//W3C//DTD SVG 1.1//EN" "http://www.w3.org/Graphics/SVG/1.1/DTD/svg11.dtd">
<svg t="1670310111800" class="icon" viewBox="0 0 100 100" version="1.1" xmlns="http://www.w3.org/2000/svg"  xmlns:xlink="http://www.w3.org/1999/xlink" width="100" height="100">

<g transform="translate(0, 61.5234375) scale(0.068359375, -0.068359375)"><path d="M 250 530 Q 287 585 330 658 Q 354 707 377 731 Q 386 743 381 756 Q 377 769 346 791 Q 318 809 299 808 Q 280 805 289 783 Q 305 752 293 724 Q 236 568 86 372 Q 76 362 74 354 Q 71 344 85 346 Q 118 355 224 495 L 250 530 Z" style="fill: rgb(85, 85, 85);"></path><path d="M 224 495 Q 243 435 245 429 Q 244 428 245 425 Q 251 260 220 131 Q 208 80 242 41 Q 243 38 246 36 Q 262 20 274 46 Q 289 86 288 131 Q 284 393 292 451 Q 299 478 290 488 Q 266 513 250 530 C 229 552 215 524 224 495 Z" style="fill: rgb(85, 85, 85);"></path><path d="M 468 401 Q 507 423 573 456 L 618 479 Q 672 507 742 542 Q 760 549 765 539 Q 772 526 760 488 Q 745 436 725 372 Q 715 330 687 344 Q 668 353 650 360 Q 637 364 638 356 Q 642 344 698 279 Q 717 251 737 272 Q 777 312 791 377 Q 806 434 820 491 Q 830 527 860 557 Q 873 573 858 585 Q 839 598 789 608 Q 770 612 756 599 Q 726 571 668 540 Q 646 528 621 515 L 576 493 Q 477 451 475 448 L 423 426 Q 368 405 333 393 Q 320 392 319 381 Q 318 374 361 362 Q 385 355 422 376 L 468 401 Z" style="fill: rgb(85, 85, 85);"></path></g>
</svg>